<?xml version="1.0" encoding="UTF-8"?>
<svg id="Layer_1" data-name="Layer 1" xmlns="http://www.w3.org/2000/svg" viewBox="0 0 280.98 262">
  <defs>
    <style>
      .cls-1 {
        fill: none;
        stroke: #000;
        stroke-linecap: round;
        stroke-linejoin: round;
        stroke-width: 25px;
      }

      .cls-2 {
        fill: #d4d4d4;
      }
    </style>
  </defs>
  <rect class="cls-2" width="280.98" height="262"/>
  <path class="cls-1" d="M106.98,45.75c-5.19.3-9.23,3.03-13.28,5.95-3.96,2.85-7.93,5.64-11.5,9.01-1.84,1.74-2.87,3.85-4.02,6-1.11,2.08-3.79,2.45-5.28,4.47-3.42,4.64-6.26,9.63-9.09,14.61-2.12,3.72-3.61,7.94-4.6,12.01-1.12,4.61-2.25,9.3-2.76,14.17-.58,5.62-1.01,11.24-.53,16.76.38,4.4.37,8.95,1.78,13.28,1.37,4.21,2.18,8.65,3.9,12.69,1.98,4.64,4.01,9.34,6.91,13.53,2.87,4.15,5.52,8.49,9.22,12.02.31.29.33.84.75.99,4.05,1.38,5.42,5.64,8.53,7.96,3.26,2.43,6.34,5.12,9.96,7.06,4.08,2.19,8.14,4.34,12.42,6.19,3.65,1.58,7.72,1.86,11.11,4.02.17.11.43.27.73.3,9.05,1.1,18.09,2.85,27.24,1.87,2.57-.27,5.3-.28,7.76-1.4.1-.05.17-.24.25-.23,4.06.19,7.74-1.33,11.51-2.47.77-.23,1.51-.45,2.26-.72,4.66-1.66,9.19-3.65,13.44-6.13,4.33-2.52,8.92-4.96,12.15-8.81,1.75-2.09,3.46-3.63,5.8-5.03,2.87-1.73,5.05-4.63,7.02-7.4,2.37-3.32,4.8-6.61,6.95-10.12,1.56-2.54,1.77-5.23,2.57-7.85.21-.7.17-1.39.77-2,3.49-3.52,4.66-8.07,5.85-12.71.85-3.32.84-6.78,1.61-9.97,1.25-5.15.94-10.25.66-15.29-.32-5.78-.93-11.59-2.47-17.29-.93-3.45-2.14-6.81-3.25-10.17-1.22-3.68-3.24-7.12-5.16-10.52-2.71-4.8-6.07-9.18-9.45-13.53-.48-.61-.93-1.25-1.53-1.73-2.2-1.78-3.75-1.68-5.73.5-11.2,12.3-23.47,23.53-35.01,35.49"/>
  <path class="cls-1" d="M201.73,63.75c-.73-3.51-3.48-5.45-6.02-7.48-4.23-3.39-8.74-6.42-13.51-8.96-4.12-2.19-8.18-4.66-12.96-5.34-1.17-.17-2.12-1.07-3.24-1.5-2.68-1.01-5.53-1.19-8.28-1.9-7.22-1.88-14.62-1.19-21.98-1.14-4.84.03-9.38,1.19-14.05,2.03-3.36.6-6.32,2.21-9.68,2.67-1.59.22-3.03,1.8-4.27,3.12"/>
  <path class="cls-1" d="M139.23,128.25c8.18,6.88,15.35,14.81,22.99,22.26,6.45,6.3,12.78,12.73,19.16,19.09,4.16,4.15,8.48,8.2,12.34,12.66,1.03,1.19,2.69,1.59,3.51,2.99"/>
  <path class="cls-1" d="M78.98,68.25c9.26,7.9,17.28,17.05,26,25.49,6.73,6.52,13.31,13.19,20.13,19.63,4.34,4.09,8.88,8.15,12.36,13.13"/>
  <path class="cls-1" d="M107.36,45.25c.04,2.1,1.31,3.63,2.65,4.98,9.46,9.54,18.98,19.02,28.48,28.52,6.58,6.58,13.17,13.16,19.74,19.76,1.29,1.3,2.64,2.53,4.01,3.74"/>
  <path class="cls-1" d="M136.98,129c-5.67,5.66-11.39,11.28-16.97,17.03-6.74,6.93-13.7,13.64-20.48,20.52-5.33,5.42-10.45,11.05-16.05,16.2"/>
  <path class="cls-1" d="M164.48,104.75c16.33,16.33,32.67,32.66,48.99,49.01,1.36,1.36,2.74,2.67,4.51,3.49"/>
  <path class="cls-1" d="M162.23,103.75c-7.54,7.46-15,15-22.5,22.5"/>
</svg>